<?xml version="1.0" encoding="UTF-8"?>
<svg viewBox="0 0 250 150" xmlns="http://www.w3.org/2000/svg" xmlns:xlink="http://www.w3.org/1999/xlink">
 <defs>
  <clipPath id="g">
   <path d="m0 841.89h595.28v-841.89h-595.28v841.89z"/>
  </clipPath>
  <linearGradient id="b">
   <stop stop-color="#025" offset="0"/>
   <stop stop-color="#025" stop-opacity="0" offset="1"/>
  </linearGradient>
  <linearGradient id="f" x1="187.85" x2="123.96" y1="91.607" y2="91.416" gradientUnits="userSpaceOnUse">
   <stop stop-color="#b5e0f4" offset="0"/>
   <stop stop-color="#d7eef4" stop-opacity="0" offset="1"/>
  </linearGradient>
  <linearGradient id="e" x1="84.248" x2="109.6" y1="61.045" y2="84.381" gradientUnits="userSpaceOnUse">
   <stop stop-color="#c4f4d3" offset="0"/>
   <stop stop-color="#d7f4e3" stop-opacity="0" offset="1"/>
  </linearGradient>
  <linearGradient id="d" x1="50.744" x2="109.12" gradientUnits="userSpaceOnUse" xlink:href="#b"/>
  <linearGradient id="c" x1="52.411" x2="103.92" gradientTransform="matrix(-1.1316 .06381 .06381 1.1316 265.7 10.819)" gradientUnits="userSpaceOnUse" xlink:href="#b"/>
  <radialGradient id="a" cx="66.023" cy="59.007" r="5.8211" gradientUnits="userSpaceOnUse" spreadMethod="reflect">
   <stop stop-color="#fff" offset="0"/>
   <stop stop-color="#feffff" stop-opacity=".04918" offset="1"/>
  </radialGradient>
 </defs>
 <path d="m43.319 70.32s8.5247-16.354 23.138-23.312 25.052-7.8288 33.229-7.6548 22.883 0.45674 45.374 12.843c8.5539 4.7106 12.733 8.904 12.733 8.904s-22.617 1.3004-41.928 13.653-23.342 21.777-23.342 21.777-17.715-0.46041-31.459-8.9851-17.745-17.223-17.745-17.223z" fill="url(#e)"/>
 <path d="m92.524 96.447s8.1654-15.642 38.017-29.374c24.797-11.407 46.317-4.1818 53.234-1.3786 16.225 6.5748 31.88 26.765 31.88 26.765s-15.177 24.811-50.385 24.932c-37.328 0.1284-55.78-21.527-55.78-21.527s-3.5525 0.37116-7.7943 0.68929-9.1729-0.10605-9.1729-0.10605z" fill="url(#f)"/>
 <path transform="matrix(1.0048 0 0 1.0048 126.35 24.312)" d="m71.844 59.007a5.8211 5.9743 0 1 1 -11.642 0 5.8211 5.9743 0 1 1 11.642 0z" fill="url(#a)"/>
 <path transform="matrix(1.0048 0 0 1.0048 126.35 24.312)" d="m71.844 59.007a5.8211 5.9743 0 1 1 -11.642 0 5.8211 5.9743 0 1 1 11.642 0z" fill="url(#a)"/>
 <path transform="matrix(1.0048 0 0 1.0048 -1.0398 -.55373)" d="m71.844 59.007a5.8211 5.9743 0 1 1 -11.642 0 5.8211 5.9743 0 1 1 11.642 0z" fill="url(#a)"/>
 <path transform="matrix(1.0048 0 0 1.0048 -1.0398 -.55373)" d="m71.844 59.007a5.8211 5.9743 0 1 1 -11.642 0 5.8211 5.9743 0 1 1 11.642 0z" fill="url(#a)"/>
 <path d="m80.09733,94.01597c1.60592,0 2.90601-1.58163 2.90601-3.53533s-1.30009-3.53533-2.90601-3.53533c-.25093,0-.49717.0418-.72944.11451 1.24872.3972 2.1648,1.77718 2.1648,3.42083s-.91608,3.02363-2.1648,3.42083c.23341.07348.4772.11451.72944.11451zm-28.48742-16.98583c1.90627,0 3.4495-1.87743 3.4495-4.19652s-1.54323-4.19652-3.4495-4.19652c-.29785,0-.59015.04962-.86587.13592 1.48226.47148 2.56967,2.10955 2.56967,4.0606s-1.0874,3.58911-2.56967,4.0606c.27706.08722.56645.13592.86587.13592zm4.88456-4.502c1.90627,0 3.4495-1.87743 3.4495-4.19652s-1.54323-4.19652-3.4495-4.19652c-.29785,0-.59015.04962-.86587.13592 1.48226.47148 2.56967,2.10955 2.56967,4.0606s-1.0874,3.58911-2.56967,4.0606c.27706.08722.56645.13592.86587.13592zm40.77074-20.02588c1.60592,0 2.90601-1.58163 2.90601-3.53533s-1.30008-3.53533-2.90601-3.53533c-.25092,0-.49717.0418-.72944.11451 1.24873.3972 2.1648,1.77718 2.1648,3.42083s-.91608,3.02363-2.1648,3.42083c.23341.07348.4772.1145.72944.1145zm-15.25239-3.01167c1.75184,0 3.17006-1.72534 3.17006-3.85656s-1.41822-3.85656-3.17006-3.85656c-.27373,0-.54235.0456-.79572.12491 1.36219.43329 2.3615,1.93866 2.3615,3.73165s-.99931,3.29837-2.3615,3.73165c.25461.08015.52057.12491.79572.12491zm9.97471,27.5649c1.90627,0 3.4495-1.87743 3.4495-4.19652s-1.54323-4.19652-3.4495-4.19652c-.29785,0-.59015.04962-.86587.13592 1.48226.47148 2.56967,2.10955 2.56967,4.0606s-1.0874,3.58911-2.56967,4.0606c.27706.08722.56645.13592.86587.13592zm-.15214-13.32064c1.90627,0 3.4495-1.87743 3.4495-4.19652s-1.54323-4.19652-3.4495-4.19652c-.29785,0-.59015.04962-.86587.13592 1.48226.47148 2.56967,2.10955 2.56967,4.0606s-1.0874,3.58911-2.56967,4.0606c.27706.08722.56645.13592.86587.13592zm-20.57801,15.16172c1.90627,0 3.4495-1.87743 3.4495-4.19652s-1.54323-4.19652-3.4495-4.19652c-.29785,0-.59015.04963-.86587.13592 1.48226.47148 2.56967,2.10955 2.56967,4.0606s-1.0874,3.58911-2.56967,4.0606c.27706.08722.56645.13592.86587.13592zm9.42339,6.17346c1.90627,0 3.4495-1.87743 3.4495-4.19652s-1.54323-4.19652-3.4495-4.19652c-.29785,0-.59015.04962-.86587.13592 1.48226.47148 2.56967,2.10955 2.56967,4.0606s-1.0874,3.58911-2.56967,4.0606c.27706.08722.56645.13592.86587.13592zm10.26525,2.19783c1.90627,0 3.4495-1.87743 3.4495-4.19652s-1.54323-4.19652-3.4495-4.19652c-.29785,0-.59015.04963-.86587.13592 1.48226.47148 2.56967,2.10955 2.56967,4.0606s-1.0874,3.58912-2.56967,4.0606c.27706.08722.56645.13592.86587.13592zm-16.13868-35.56021c1.90627,0 3.4495-1.87743 3.4495-4.19652s-1.54323-4.19651-3.4495-4.19651c-.29785,0-.59015.04962-.86587.13592 1.48226.47148 2.56967,2.10955 2.56967,4.0606s-1.0874,3.58912-2.56967,4.0606c.27706.08722.56645.13592.86587.13592zm-16.63679,34.5445c1.90627,0 3.4495-1.87743 3.4495-4.19652s-1.54323-4.19652-3.4495-4.19652c-.29785,0-.59015.04962-.86587.13592 1.48226.47148 2.56967,2.10955 2.56967,4.0606s-1.0874,3.58912-2.56967,4.0606c.27706.08722.56645.13592.86587.13592zm10.32632.89046c0-2.31908-1.54323-4.19652-3.4495-4.19652-.29785,0-.59015.04962-.86587.13592 1.48226.47148 2.56967,2.10955 2.56967,4.0606-.25314,2.77979 1.73316,3.03099 1.7457,0zm37.17761-15.77544c1.90627,0 3.44951-1.87743 3.44951-4.19652s-1.54324-4.19652-3.44951-4.19652c-.29785,0-.59015.04963-.86585.13592 1.48226.47148 2.56966,2.10955 2.56966,4.0606s-1.0874,3.58911-2.56966,4.0606c.27705.08722.56644.13592.86585.13592zm-8.00257,12.23111c1.60592,0 2.90601-1.58163 2.90601-3.53533s-1.30009-3.53533-2.90601-3.53533c-.25093,0-.49717.0418-.72945.11451 1.24873.3972 2.1648,1.77718 2.1648,3.42083s-.91608,3.02363-2.1648,3.42083c.23341.07348.4772.11451.72945.11451zm-18.38686-8.05809c1.90627,0 3.4495-1.87743 3.4495-4.19652s-1.54323-4.19652-3.4495-4.19652c-.29785,0-.59015.04962-.86587.13592 1.48226.47148 2.56967,2.10955 2.56967,4.0606s-1.0874,3.58911-2.56967,4.0606c.27706.08722.56645.13592.86587.13592zm-15.8692,1.4405c1.90627,0 3.4495-1.87743 3.4495-4.19652s-1.54323-4.19652-3.4495-4.19652c-.29785,0-.59015.04962-.86587.13592 1.48226.47148 2.56967,2.10955 2.56967,4.0606s-1.0874,3.58912-2.56967,4.0606c.27706.08722.56645.13592.86587.13592zm39.67845-22.40687c1.45576,0 2.63427-1.43373 2.63427-3.20474s-1.17851-3.20474-2.63427-3.20474c-.22746,0-.45068.03789-.66123.10379 1.13196.36006 1.96236,1.611 1.96236,3.10094s-.8304,2.74089-1.96236,3.10094c.21158.0666.43258.10379.66123.1038zm-21.29718,4.08687c1.60592,0 2.90601-1.58163 2.90601-3.53533s-1.30009-3.53533-2.90601-3.53533c-.25093,0-.49717.0418-.72944.11451 1.24873.3972 2.1648,1.77718 2.1648,3.42083s-.91608,3.02363-2.1648,3.42083c.23341.07348.4772.11451.72944.11451zm4.14686,8.2984c1.90627,0 3.4495-1.87743 3.4495-4.19652s-1.54323-4.19652-3.4495-4.19652c-.29785,0-.59015.04962-.86587.13592 1.48226.47148 2.56967,2.10955 2.56967,4.0606s-1.0874,3.58911-2.56967,4.0606c.27706.08722.56645.13592.86587.13592zm-9.43542-7.18817c1.53084,0 2.77014-1.50768 2.77014-3.37004s-1.2393-3.37004-2.77014-3.37004c-.23919,0-.47393.03985-.69534.10915 1.19034.37863 2.06358,1.69409 2.06358,3.26088s-.87325,2.88226-2.06358,3.26089c.22249.07005.45489.10915.69534.10916zm-3.80734,29.71173c1.90627,0 3.4495-1.87743 3.4495-4.19652s-1.54323-4.19652-3.4495-4.19652c-.29785,0-.59015.04962-.86587.13592 1.48226.47148 2.56967,2.10955 2.56967,4.0606s-1.0874,3.58912-2.56967,4.0606c.27706.08722.56645.13592.86587.13592z" fill="url(#d)" opacity=".25"/>
 <path d="m179.77224,115.10528c-.11005-1.9506 1.09898-3.60293 2.70236-3.69333 .25054-.0137.49873.0137.73473.0732-1.22437.4669-2.06131,1.89623-1.96877,3.53728 .14442.25881-1.3561.89383-1.46832.0828zm30.58638-15.19656c-1.90323.10729-3.54972-1.68025-3.68028-3.99566s1.30452-4.27674 3.20778-4.38406c.29737-.01672.592.01631.87213.08696-1.45336.55419-2.44682,2.25088-2.33698,4.19882s1.28773,3.5222 2.79419,3.9095c-.27171.10267-.55789.16761-.85683.18446zm-5.13026-4.21987c-1.90325.10732-3.54973-1.68025-3.68029-3.99566s1.30453-4.27675 3.20778-4.38406c.29738-.01672.59201.01632.87213.08696-1.45336.55418-2.44682,2.25087-2.33698,4.19883s1.28774,3.5222 2.79419,3.90949c-.27171.10268-.5579.16759-.85683.18445zm-41.8335-17.69879c-1.60338.09041-2.99044-1.41552-3.10043-3.36612s1.09899-3.60291 2.70236-3.69333c.25052-.01418.49874.01374.73474.07325-1.22438.4669-2.06132,1.89624-1.96879,3.53728s1.08486,2.96726 2.35396,3.29353c-.22889.08654-.46999.14119-.72184.15538zm15.05865-3.86558c-1.74906.09863-3.26217-1.54414-3.38215-3.67198s1.19884-3.93029 2.94791-4.02891c.27331-.01538.54405.015.80149.07991-1.33563.50933-2.24861,2.06853-2.14766,3.85868s1.18342,3.23687 2.56783,3.59279c-.2497.09434-.51271.154-.78743.1695zm-8.40705,28.08274c-1.90323.10729-3.54971-1.68025-3.68028-3.99566s1.30453-4.27675 3.20778-4.38407c.29738-.01672.59201.01632.87214.08696-1.45336.55418-2.44682,2.25088-2.33698,4.19883s1.28772,3.52221 2.79418,3.90949c-.2717.10268-.55789.16759-.85684.18445zm-.59801-13.30808c-1.90326.10732-3.54974-1.68025-3.68029-3.99566s1.30452-4.27674 3.20777-4.38406c.29739-.01672.59202.01631.87214.08696-1.45336.5542-2.44682,2.25087-2.33698,4.19883s1.28774,3.5222 2.79419,3.90949c-.27171.10269-.5579.16759-.85683.18445zm21.39895,13.97917c-1.90325.10729-3.54972-1.68025-3.68029-3.99566s1.30453-4.27674 3.20778-4.38406c.29738-.01672.59201.01633.87214.08696-1.45337.55419-2.44683,2.25087-2.33699,4.19882s1.28774,3.5222 2.7942,3.90949c-.27172.10268-.5579.16761-.85684.18446zm-9.0609,6.69419c-1.90323.10729-3.54971-1.68024-3.68027-3.99566s1.30452-4.27675 3.20776-4.38406c.29737-.0171.59201.0163.87215.087-1.45337.55419-2.44683,2.25088-2.33699,4.19883s1.28774,3.5222 2.7942,3.9095c-.27172.10268-.5579.16761-.85684.18446zm-10.12523,2.77226c-1.90325.10729-3.54972-1.68025-3.68029-3.99566s1.30454-4.27674 3.20778-4.38406c.29737-.0171.59201.0164.87214.087-1.45337.55419-2.44683,2.25088-2.33699,4.19883s1.28774,3.5222 2.7942,3.90949c-.27172.10268-.5579.16761-.85684.18446zm14.11111-36.41239c-1.90325.10733-3.54972-1.68025-3.68029-3.99566s1.30454-4.27674 3.20778-4.38406c.29738-.01672.59201.01631.87214.08696-1.45336.5542-2.44683,2.25087-2.33698,4.19881s1.28773,3.52221 2.79419,3.9095c-.27172.10264-.5579.16761-.85684.18446zm14.87492,29.55743c-.13053-2.31541 1.30452-4.27674 3.20777-4.38406 .29737-.0171.59201.0164.87215.087-1.45337.5542-2.44683,2.25088-2.33699,4.19882 .5567.65807-1.56228,2.3801-1.74293.0983zm-6.57953,5.46607c-.13053-2.31541 1.30454-4.27675 3.20778-4.38407 .29737-.0171.59201.0164.87214.087-1.45336.5542-2.61167,1.7683-2.28272,3.52197 .0615-.47374-1.60183,1.04322-1.7972.77514zm-38.00676-13.6574c-1.90325.10732-3.54974-1.68025-3.6803-3.99566s1.30454-4.27675 3.20777-4.38406c.29738-.01672.59202.01632.87214.08696-1.45337.55418-2.44682,2.25087-2.33699,4.19882s1.28775,3.5222 2.7942,3.90949c-.2717.10268-.5579.16759-.85682.18445zm8.67846,11.76119c-1.60337.0904-2.99044-1.41552-3.10043-3.36612s1.09899-3.60292 2.70237-3.69333c.25054-.0137.49873.0137.73473.0732-1.22439.46687-2.06132,1.89624-1.96877,3.53728s1.08483,2.96726 2.35395,3.29352c-.2289.0866-.47001.1412-.72185.1554zm17.90405-9.08047c-1.90325.10729-3.54973-1.68025-3.68028-3.99566s1.30452-4.27674 3.20777-4.38406c.29738-.01672.59201.01632.87214.08696-1.45337.55419-2.44683,2.25088-2.33699,4.19883s1.28774,3.5222 2.7942,3.90949c-.2717.10268-.55791.1676-.85684.18445zm15.92513.54482c-1.90324.10729-3.54972-1.68026-3.68028-3.99566s1.30453-4.27675 3.20777-4.38406c.29738-.01672.59201.01632.87214.08696-1.45336.55418-2.44682,2.25088-2.33697,4.19882s1.28772,3.52221 2.79418,3.90948c-.27172.10268-.55789.16762-.85684.18447zm-40.87698-20.13751c-1.45346.08196-2.71082-1.28315-2.81053-3.05135s.99623-3.26601 2.44968-3.34796c.22711-.01277.4521.01245.66603.0664-1.1099.4232-1.86855,1.71892-1.78467,3.20651s.98338,2.6898 2.13382,2.98555c-.20736.07881-.42605.12798-.65434.14084zm21.49347,2.88139c-1.60337.09041-2.99043-1.41552-3.10043-3.36613s1.099-3.60292 2.70238-3.69332c.2505-.01418.49873.01374.73473.07325-1.22437.4669-2.06133,1.89625-1.96878,3.53728s1.08484,2.96726 2.35395,3.29352c-.2289.08651-.47001.14119-.72185.15539zm-3.67309,8.51869c-1.90324.10732-3.54972-1.68026-3.68028-3.99566s1.30453-4.27674 3.20777-4.38406c.29738-.01672.59201.01632.87214.08696-1.45337.55419-2.44683,2.25087-2.33699,4.19883s1.28774,3.5222 2.7942,3.90949c-.2717.10268-.55791.16759-.85684.18445zm9.01577-7.70797c-1.5284.08618-2.85062-1.34934-2.95546-3.20874s1.04761-3.43446 2.57601-3.52064c.23882-.01343.47542.0131.70039.06983-1.16716.445-1.96494,1.80757-1.87674,3.37188s1.03412,2.82853 2.2439,3.13954c-.2182.08247-.44803.13458-.68809.14812zm1.79375,25.45459c-.13053-2.31539 1.30453-4.27673 3.20777-4.38406 .29736-.0171.592.0164.87214.087-1.45336.55421-2.44683,2.25087-2.337,4.19881s.59251,2.86834 2.09897,3.25564c-2.92784.87601-3.76427-2.20445-3.84188-3.15736z" fill="url(#c)" opacity=".25"/>
 <g transform="matrix(1.8384 0 0 -1.8384 -416.58 848.91)" fill="#025">
  <g fill="#025">
   <g clip-path="url(#g)" fill="#025">
    <g transform="translate(272.28 409.19)" fill="#025">
     <path d="m0,0c-9.418,2.627-18.722,6.279-25.457,14.67 7.192,9.189 17.922,16.781 30.138,16.781 0,.285-.628,1.198-1.941,1.084 .514,3.14-1.199,8.961-1.598,9.933 2.339-3.882 3.31-6.622 4.452-10.96 .285.057 1.826,0 2.283.114-.285.685-.742,1.256-1.883,1.37 .627,2.796-1.313,8.562-1.941,10.674 .97-1.427 3.482-5.194 4.509-11.987 .628,0 2.34-.228 2.682-.171 0,.114-.285,1.484-2.168,1.769 1.141,2.855-1.427,9.475-2.112,11.531 3.139-4.224 4.395-10.103 5.023-13.414 5.764-.799 14.041-2.34 20.89-7.079-11.701,6.851-31.393,9.818-42.865.8 2.168-.37008 4.566-1.769 5.023-4.68-2.35884,3.8853-7.31419,4.41665-8.22259.43251s4.34104-5.88806 7.82259-2.31551c-.97-1.656-2.569-3.198-4.623-3.083-2.455-.171-4.281,1.655-5.366,3.482-2.112-2.226-4.38117-5.95663-2.341-8.106 14.33001-15.09701 38.814-12.728 52.799,0-9.076-9.018-21.69-12.386-35.104-10.845m7.363-3.425c-2.797-5.707-6.507-11.073-10.046-16.609 2.854,5.365 5.48,10.617 6.621,16.609-6.107,1.485-12.329,2.57-17.751,5.366-1.084-.628.286-1.255.399-1.941-4.565-.228-7.99-4.565-10.502-8.048 2.112,4.339 5.194,7.193 8.105,11.188-5.08,3.31-9.532,6.45-13.47,11.53l1.883,1.198c7.478-13.014 21.976-17.01 35.161-18.094 10.616.514 19.921,4.053 28.14,10.389-7.363-8.163-17.866-10.617-28.54-11.588m11.587-.399c11.244-7.763 29.281-9.989 41.668-3.082 3.31,1.826 7.05587,4.65552 8.105,8.505 .66829,2.45208-1.10774,3.995-3.082,5.822-.857-2.283-1.769-4.281-4.224-5.08-2.512-.4-4.624.457-6.221,2.341v.341c1.197-2.112 3.596-2.169 5.422-1.484 2.226,1.198 2.317,4.20981 1.484,5.766s-3.56849,2.19651-4.967,1.54-1.312-.97-1.939-1.54c.683,1.94 2.36542,2.88426 4.222,3.082-5.593,3.71-11.814,7.02-18.835,6.165 5.423-4.739 3.197-12.615 7.648-17.696l4.682-5.421c-7.479,6.049-11.588,14.211-13.186,23.117-11.644.741-26.713-7.935-33.905-16.611 2.283,8.79 1.313,19.122-3.824,26.256 4.623-6.392 7.249-13.641 7.705-21.576 10.16,7.82 15.697,11.359 29.167,13.186l-4.452,3.767 4.965-3.425c1.315,7.934 5.881,14.556 10.846,21.176-4.338-6.392-7.533-13.641-7.82-21.575 .515,0 1.142-.115 2.056-.171 0,4.395 1.768,8.733 3.368,12.442-1.2-3.368-1.713-6.734-1.2-10.787-.4-.514-1.713-1.027-1.427-1.713 1.371-.17 1.656-.057 2.226-.228 .629,4.281 1.885,8.22 3.539,11.986-1.428-3.309-1.826-7.876-1.199-10.445-.57-.228-1.084-.627-1.541-1.541 11.018-1.427 19.465-7.705 27.855-14.611-12.558-17.867-39.898-21.462-57.136-8.506m44.806-5.822c1.713-3.424 2.741-7.192 3.426-11.13-1.027,2.797-2.226,6.165-5.365,7.305 .627.857 1.256,2.227.683,3.14-12.441-5.708-29.166-4.566-40.867,1.884l-3.425,3.482c12.101-8.39 29.794-10.332 43.609-4.281 6.277,3.196 12.385,8.104 16.209,14.669l1.484-1.085c-4.109-5.48-9.875-10.616-15.754-13.984" fill="#025" fill-rule="evenodd"/>
    </g>
   </g>
  </g>
 </g>
</svg>
